<svg xmlns="http://www.w3.org/2000/svg" width="1060" height="568" viewBox="0 0 1060 568" font-family="-apple-system, BlinkMacSystemFont, 'SF Pro Text', 'PingFang SC', 'Segoe UI', system-ui, sans-serif">
  <defs>
    <linearGradient id="bg" x1="0" y1="0" x2="0" y2="1">
      <stop offset="0%" stop-color="#FAF6EC"/>
      <stop offset="100%" stop-color="#EDE3CC"/>
    </linearGradient>
    <filter id="bsh" x="-12%" y="-20%" width="124%" height="155%">
      <feDropShadow dx="0" dy="2" stdDeviation="3" flood-color="#1A140A" flood-opacity="0.10"/>
    </filter>
  </defs>

  <rect x="0.5" y="0.5" width="1059" height="567" rx="24" fill="url(#bg)" stroke="#1A1D22" stroke-opacity="0.06"/>

  <!-- ── header ── -->
  <svg x="44" y="22" width="30" height="30" viewBox="0 0 1024 1024">
    <rect x="7" y="7" width="1007" height="1008" rx="203" ry="203" fill="#F8F0E4"/>
    <g fill="none" stroke="#5CBFBE" stroke-linecap="round">
      <path d="M 210 418 A 197 197 0 0 1 403 141" stroke-width="44"/>
      <path d="M 268 403 A 139 139 0 0 1 396 199" stroke-width="39"/>
      <path d="M 312 382 A  90  90 0 0 1 361 253" stroke-width="30"/>
    </g>
    <path fill="#31353D" d="M 510 193 C 429.1 196.7, 345.5 256.4, 340 342 C 327.5 446.6, 430.2 505.1, 510 534 C 546.7 550.2, 592.5 573.6, 606 616 C 622.7 678.2, 556.9 727.3, 500 726 C 429.5 734.2, 384.4 680.8, 328 655 C 295.1 651.8, 267.4 683.9, 275 716 C 309.6 798.7, 404.5 837.2, 489 843 C 601.1 850.6, 706.9 753.7, 721 646 C 731.9 569, 688.6 497.1, 621 464 C 573.4 438.4, 519.4 428.5, 473 400 C 419 370.8, 443.6 291.3, 497 281 C 556.6 257, 610.3 296.4, 656 328 C 740.9 342.4, 706.3 223.9, 645 216 C 604.5 197.4, 559.1 190.8, 510 193 Z"/>
    <g stroke="#5CBFBE" stroke-linecap="round">
      <line x1="741" y1="720" x2="867" y2="720" stroke-width="26"/>
      <line x1="703" y1="777" x2="840" y2="777" stroke-width="26"/>
      <line x1="643" y1="840" x2="862" y2="840" stroke-width="31"/>
      <line x1="900" y1="810" x2="900" y2="864" stroke-width="15"/>
    </g>
  </svg>
  <text x="86" y="38" font-size="17" font-weight="700" fill="#2A2722">Soto — Architecture</text>
  <text x="86" y="56" font-size="12" fill="#6B6256">Electron · React · TypeScript · OS-native via koffi FFI</text>
  <line x1="44" y1="72" x2="1016" y2="72" stroke="#1A1D22" stroke-opacity="0.08"/>

  <!-- ═══ dependency arrows (behind boxes) ═══ -->
  <g stroke="#B8AE98" stroke-width="1.4" fill="none">
    <line x1="277" y1="162" x2="277" y2="179"/>
    <line x1="783" y1="162" x2="783" y2="179"/>
    <line x1="277" y1="238" x2="277" y2="245"/>
    <line x1="783" y1="238" x2="783" y2="245"/>
    <line x1="410" y1="292" x2="410" y2="313"/>
    <polyline points="410,378 410,390 300,390 300,395"/>
    <line x1="279" y1="462" x2="279" y2="479"/>
    <line x1="898" y1="378" x2="898" y2="479"/>
    <polyline points="884,378 884,476 640,476 640,479"/>
  </g>
  <g fill="#B8AE98">
    <path d="M273.5,179 L280.5,179 L277,186 Z"/>
    <path d="M779.5,179 L786.5,179 L783,186 Z"/>
    <path d="M273.5,245 L280.5,245 L277,252 Z"/>
    <path d="M779.5,245 L786.5,245 L783,252 Z"/>
    <path d="M406.5,313 L413.5,313 L410,320 Z"/>
    <path d="M296.5,395 L303.5,395 L300,402 Z"/>
    <path d="M275.5,479 L282.5,479 L279,486 Z"/>
    <path d="M894.5,479 L901.5,479 L898,486 Z"/>
    <path d="M636.5,479 L643.5,479 L640,486 Z"/>
  </g>

  <!-- ═══ RENDERER ═══ -->
  <text x="44" y="96" font-size="11" font-weight="600" fill="#9B9078" letter-spacing="1.2">RENDERER · React, sandboxed</text>
  <g filter="url(#bsh)"><rect x="44" y="104" width="466" height="58" rx="12" fill="#FFFCF6" stroke="#E3D9C4"/></g>
  <text x="62" y="130" font-size="14.5" font-weight="700" fill="#2A2722">Main Window</text>
  <text x="62" y="149" font-size="10.5" fill="#6B6256">Home · History · Modes · Models · Dictionary · Settings</text>
  <g filter="url(#bsh)"><rect x="550" y="104" width="466" height="58" rx="12" fill="#FFFCF6" stroke="#E3D9C4"/></g>
  <text x="568" y="130" font-size="14.5" font-weight="700" fill="#2A2722">Capsule Overlay</text>
  <text x="568" y="149" font-size="10.5" fill="#6B6256">transparent · always-on-top · click-through</text>

  <!-- ═══ PRELOAD ═══ -->
  <text x="44" y="180" font-size="11" font-weight="600" fill="#9B9078" letter-spacing="1.2">PRELOAD · contextBridge</text>
  <g filter="url(#bsh)"><rect x="44" y="186" width="466" height="52" rx="12" fill="#FFFCF6" stroke="#E3D9C4"/></g>
  <text x="62" y="216" font-size="13.5" font-weight="700" fill="#2A2722">Main Preload</text>
  <text x="492" y="216" font-size="11" font-weight="600" fill="#3FA39C" text-anchor="end">window.soto · 28 cmds</text>
  <g filter="url(#bsh)"><rect x="550" y="186" width="466" height="52" rx="12" fill="#FFFCF6" stroke="#E3D9C4"/></g>
  <text x="568" y="216" font-size="13.5" font-weight="700" fill="#2A2722">Capsule Preload</text>
  <text x="998" y="216" font-size="11" font-weight="600" fill="#3FA39C" text-anchor="end">least-privilege · 6 cmds</text>

  <!-- ═══ IPC TRUST BOUNDARY ═══ -->
  <g filter="url(#bsh)"><rect x="44" y="252" width="972" height="40" rx="12" fill="#E9F6F4" stroke="#5dc8c1" stroke-width="1.4"/></g>
  <path d="M70 266 l9 -4 l9 4 v6 c0 6 -4 10 -9 12 c-5 -2 -9 -6 -9 -12 z" fill="none" stroke="#3FA39C" stroke-width="1.6" stroke-linejoin="round"/>
  <text x="100" y="277" font-size="13.5" font-weight="700" fill="#1F6F6A">IPC TRUST BOUNDARY</text>
  <text x="998" y="277" font-size="11.5" fill="#2A6F6A" text-anchor="end">@soto/ipc IpcRouter · whitelist → auth → zod</text>

  <!-- ═══ MAIN PROCESS ═══ -->
  <text x="44" y="314" font-size="11" font-weight="600" fill="#9B9078" letter-spacing="1.2">MAIN PROCESS · Electron</text>
  <g filter="url(#bsh)"><rect x="44" y="320" width="222" height="58" rx="12" fill="#FFFCF6" stroke="#E3D9C4"/></g>
  <text x="60" y="346" font-size="13" font-weight="700" fill="#2A2722">Bootstrap + Windows</text>
  <text x="60" y="365" font-size="10" fill="#6B6256">whenReady → buildRuntime</text>
  <g filter="url(#bsh)"><rect x="290" y="320" width="240" height="58" rx="12" fill="#F1FAF9" stroke="#5dc8c1" stroke-width="1.6"/></g>
  <text x="306" y="346" font-size="13" font-weight="700" fill="#1F6F6A">SessionController</text>
  <text x="306" y="365" font-size="10" fill="#2A6F6A">dictation orchestration keystone</text>
  <g filter="url(#bsh)"><rect x="554" y="320" width="210" height="58" rx="12" fill="#FFFCF6" stroke="#E3D9C4"/></g>
  <text x="570" y="346" font-size="13" font-weight="700" fill="#2A2722">SqliteStore</text>
  <text x="570" y="365" font-size="10" fill="#6B6256">better-sqlite3 · ~/.soto</text>
  <g filter="url(#bsh)"><rect x="788" y="320" width="228" height="58" rx="12" fill="#FFFCF6" stroke="#E3D9C4"/></g>
  <text x="804" y="346" font-size="13" font-weight="700" fill="#2A2722">Native bridge</text>
  <text x="804" y="365" font-size="10" fill="#6B6256">@soto/native-bridge · koffi</text>

  <!-- ═══ @soto/core ═══ -->
  <text x="44" y="396" font-size="11" font-weight="600" fill="#9B9078" letter-spacing="1.2">WORKSPACE PACKAGES</text>
  <g filter="url(#bsh)"><rect x="44" y="402" width="470" height="60" rx="12" fill="#F1FAF9" stroke="#5dc8c1" stroke-width="1.6"/></g>
  <text x="62" y="429" font-size="15" font-weight="700" fill="#1F6F6A">@soto/core</text>
  <text x="186" y="429" font-size="11" fill="#2A6F6A">single source of truth · leaf (deps = zod)</text>
  <text x="62" y="449" font-size="10.5" fill="#6B6256">layered foundation → contract → capabilities → domain</text>

  <!-- ═══ NATIVE + EXTERNAL ═══ -->
  <text x="44" y="480" font-size="11" font-weight="600" fill="#9B9078" letter-spacing="1.2">NATIVE &amp; EXTERNAL</text>
  <rect x="200" y="486" width="290" height="58" rx="12" fill="#FBF7EF" stroke="#B8AE98" stroke-width="1.3" stroke-dasharray="5 4"/>
  <text x="218" y="512" font-size="13" font-weight="700" fill="#5b5346">Omni provider</text>
  <text x="218" y="531" font-size="10" fill="#9B9078">cloud · HTTP /chat/completions</text>
  <g filter="url(#bsh)"><rect x="520" y="486" width="240" height="58" rx="12" fill="#26231F" stroke="#FFFFFF" stroke-opacity="0.10"/></g>
  <text x="538" y="512" font-size="13" font-weight="700" fill="#F3ECDD">libSotoMacNative.dylib</text>
  <text x="538" y="531" font-size="10" fill="#B9B0A0">Swift · @_cdecl · macOS 14+</text>
  <g filter="url(#bsh)"><rect x="776" y="486" width="240" height="58" rx="12" fill="#26231F" stroke="#FFFFFF" stroke-opacity="0.10"/></g>
  <text x="794" y="512" font-size="13" font-weight="700" fill="#F3ECDD">SotoWinNative.dll</text>
  <text x="794" y="531" font-size="10" fill="#B9B0A0">.NET 8 NativeAOT</text>
</svg>
