<svg xmlns="http://www.w3.org/2000/svg" width="512" height="512" viewBox="129 146 750 750">
  <path fill="currentColor" d="M 510 193 C 429.1 196.7, 345.5 256.4, 340 342 C 327.5 446.6, 430.2 505.1, 510 534 C 546.7 550.2, 592.5 573.6, 606 616 C 622.7 678.2, 556.9 727.3, 500 726 C 429.5 734.2, 384.4 680.8, 328 655 C 295.1 651.8, 267.4 683.9, 275 716 C 309.6 798.7, 404.5 837.2, 489 843 C 601.1 850.6, 706.9 753.7, 721 646 C 731.9 569, 688.6 497.1, 621 464 C 573.4 438.4, 519.4 428.5, 473 400 C 419 370.8, 443.6 291.3, 497 281 C 556.6 257, 610.3 296.4, 656 328 C 740.9 342.4, 706.3 223.9, 645 216 C 604.5 197.4, 559.1 190.8, 510 193 Z"/>
</svg>
