<svg xmlns="http://www.w3.org/2000/svg" width="1024" height="1024" viewBox="0 0 1024 1024" preserveAspectRatio="xMidYMid meet">
  
  <rect x="7" y="7" width="1007" height="1008" rx="203" ry="203" fill="#F8F0E4"></rect>

  
  <g fill="none" stroke="#5CBFBE" stroke-linecap="round">
    <path d="M 210 418 A 197 197 0 0 1 403 141" stroke-width="44"></path>
    <path d="M 268 403 A 139 139 0 0 1 396 199" stroke-width="39"></path>
    <path d="M 312 382 A  90  90 0 0 1 361 253" stroke-width="30"></path>
  </g>

  
  <path fill="#31353D" d="M 510 193&#xA;    C 429.1 196.7, 345.5 256.4, 340 342&#xA;    C 327.5 446.6, 430.2 505.1, 510 534&#xA;    C 546.7 550.2, 592.5 573.6, 606 616&#xA;    C 622.7 678.2, 556.9 727.3, 500 726&#xA;    C 429.5 734.2, 384.4 680.8, 328 655&#xA;    C 295.1 651.8, 267.4 683.9, 275 716&#xA;    C 309.6 798.7, 404.5 837.2, 489 843&#xA;    C 601.1 850.6, 706.9 753.7, 721 646&#xA;    C 731.9 569, 688.6 497.1, 621 464&#xA;    C 573.4 438.4, 519.4 428.5, 473 400&#xA;    C 419 370.8, 443.6 291.3, 497 281&#xA;    C 556.6 257, 610.3 296.4, 656 328&#xA;    C 740.9 342.4, 706.3 223.9, 645 216&#xA;    C 604.5 197.4, 559.1 190.8, 510 193 Z"></path>

  
  <g stroke="#5CBFBE" stroke-linecap="round">
    <line x1="741" y1="720" x2="867" y2="720" stroke-width="26"></line>
    <line x1="703" y1="777" x2="840" y2="777" stroke-width="26"></line>
    <line x1="643" y1="840" x2="862" y2="840" stroke-width="31"></line>
    <line x1="900" y1="810" x2="900" y2="864" stroke-width="15"></line>
  </g>
</svg>